<?xml version="1.0" encoding="UTF-8"?>
<svg id="Capa_2" data-name="Capa 2" xmlns="http://www.w3.org/2000/svg" viewBox="0 0 70 70">
  <defs>
    <style>
      .cls-1 {
        stroke-width: 1.85px;
      }

      .cls-1, .cls-2, .cls-3, .cls-4 {
        fill: none;
      }

      .cls-1, .cls-3, .cls-4 {
        stroke: #14223a;
        stroke-linecap: round;
        stroke-linejoin: round;
      }

      .cls-2 {
        stroke-width: 0px;
      }

      .cls-3 {
        stroke-width: 1.62px;
      }

      .cls-4 {
        stroke-width: 1.89px;
      }
    </style>
  </defs>
  <g id="Capa_1-2" data-name="Capa 1">
    <g>
      <g>
        <g id="g3131">
          <g id="g3133">
            <g id="g3139">
              <path id="path3141" class="cls-3" d="m22.94,26.96h40.2"/>
            </g>
          </g>
        </g>
        <g id="g3143">
          <path id="path3145" class="cls-1" d="m26.96,43.17v-15.92"/>
        </g>
        <g id="g3147">
          <path id="path3149" class="cls-4" d="m59.75,27.26v15.29"/>
        </g>
        <g id="g3153">
          <g id="g3159">
            <path id="path3161" class="cls-1" d="m14.9,47.2c0,2.22-1.8,4.02-4.02,4.02s-4.02-1.8-4.02-4.02,1.8-4.02,4.02-4.02,4.02,1.8,4.02,4.02Z"/>
          </g>
          <g id="g3163">
            <path id="path3165" class="cls-1" d="m18.92,67.3H2.7v-4.02c0-4.44,3.73-8.04,8.17-8.04s8.04,3.6,8.04,8.04v4.02Z"/>
          </g>
          <g id="g3167">
            <path id="path3169" class="cls-1" d="m30.98,47.2c0,2.22-1.8,4.02-4.02,4.02s-4.02-1.8-4.02-4.02,1.8-4.02,4.02-4.02,4.02,1.8,4.02,4.02Z"/>
          </g>
          <g id="g3171">
            <path id="path3173" class="cls-1" d="m35,67.3h-16.08v-4.02c0-4.44,3.6-8.04,8.04-8.04s8.04,3.6,8.04,8.04v4.02Z"/>
          </g>
          <g id="g3175">
            <path id="path3177" class="cls-1" d="m47.06,47.2c0,2.22-1.8,4.02-4.02,4.02s-4.02-1.8-4.02-4.02,1.8-4.02,4.02-4.02,4.02,1.8,4.02,4.02Z"/>
          </g>
          <g id="g3179">
            <path id="path3181" class="cls-1" d="m51.08,67.3h-16.08v-4.02c0-4.44,3.6-8.04,8.04-8.04s8.04,3.6,8.04,8.04v4.02Z"/>
          </g>
          <g id="g3183">
            <path id="path3185" class="cls-1" d="m63.14,47.2c0,2.22-1.8,4.02-4.02,4.02s-4.02-1.8-4.02-4.02,1.8-4.02,4.02-4.02,4.02,1.8,4.02,4.02Z"/>
          </g>
          <g id="g3187">
            <path id="path3189" class="cls-1" d="m67.3,67.3h-16.22v-4.02c0-4.44,3.6-8.04,8.04-8.04s8.17,3.6,8.17,8.04v4.02Z"/>
          </g>
          <g id="g3191">
            <path id="path3193" class="cls-1" d="m55.1,6.72c0,2.22-1.8,4.02-4.02,4.02s-4.02-1.8-4.02-4.02,1.8-4.02,4.02-4.02,4.02,1.8,4.02,4.02Z"/>
          </g>
          <g id="g3195">
            <path id="path3197" class="cls-1" d="m59.12,26.96h-16.08v-4.15c0-4.44,3.6-8.04,8.04-8.04s8.04,3.6,8.04,8.04v4.15Z"/>
          </g>
          <g id="g3199">
            <path id="path3201" class="cls-1" d="m30.98,26.96v-8.17c0-2.22,1.8-4.02,4.02-4.02"/>
          </g>
        </g>
      </g>
      <rect class="cls-2" width="70" height="70"/>
    </g>
  </g>
</svg>