<?xml version="1.0" encoding="UTF-8"?>
<svg id="Capa_2" data-name="Capa 2" xmlns="http://www.w3.org/2000/svg" viewBox="0 0 54.06 67.31">
  <defs>
    <style>
      .cls-1 {
        fill: #14223a;
      }
    </style>
  </defs>
  <g id="Capa_1-2" data-name="Capa 1">
    <g>
      <path class="cls-1" d="M4.23,32.48c.16.17.38.27.61.27.34,0,.63-.19.76-.5.14-.31.08-.66-.15-.9-.62-.67-1.16-1.41-1.62-2.2-.11-.19-.29-.33-.51-.39-.07-.02-.15-.03-.22-.03-.15,0-.29.04-.42.11-.19.11-.33.29-.39.51-.06.22-.03.44.08.63.52.9,1.14,1.74,1.84,2.5Z"/>
      <path class="cls-1" d="M14.34,13.23c-3.89,0-7.32,2.21-8.94,5.76-1.63,3.56-1.06,7.6,1.49,10.54.16.18.39.29.63.29.33,0,.62-.19.76-.49.14-.3.09-.64-.13-.89-2.11-2.44-2.59-5.79-1.23-8.75,1.35-2.95,4.19-4.78,7.42-4.78,2.63,0,5.04,1.22,6.6,3.35,1.56,2.13,2,4.79,1.2,7.3-.07.21-.05.44.05.64s.28.34.49.41h0c.21.07.44.05.64-.05.2-.1.34-.28.41-.49.96-3.02.43-6.23-1.45-8.79-1.88-2.57-4.78-4.04-7.95-4.04Z"/>
      <path class="cls-1" d="M14.19,9.28h0c-4.57.04-8.81,2.35-11.34,6.16-.17.26-.19.58-.04.86.15.28.42.44.74.44.28,0,.54-.14.7-.37,2.22-3.35,5.95-5.37,9.97-5.41.46,0,.83-.38.83-.85,0-.46-.38-.83-.84-.83Z"/>
      <path class="cls-1" d="M1.17,18.97c-.75,2.4-.83,4.95-.24,7.38.11.45.56.72,1.01.61.22-.05.4-.19.52-.38.12-.19.15-.42.1-.63-.52-2.13-.45-4.38.21-6.48.14-.44-.11-.91-.55-1.05-.08-.03-.17-.04-.25-.04-.36,0-.69.23-.8.59Z"/>
      <path class="cls-1" d="M38.06,39.52c0-1.53-.8-2.88-2.15-3.6-1.35-.73-2.92-.67-4.19.17l-.19.13v-.59c0-1.53-.8-2.88-2.15-3.6-1.35-.73-2.92-.67-4.19.17l-.19.13v-.23c0-1.71-.78-3.12-2.15-3.86-1.33-.72-2.93-.65-4.19.17l-.19.13v-6.02c0-2.26-1.84-4.11-4.11-4.11s-4.11,1.84-4.11,4.11v18.85l-.22-.23c-1.98-2.12-4.13-3.26-6.06-3.26-.42,0-.82.05-1.22.16-1.37.37-2.35,1.38-2.65,2.7-.37,1.66.41,3.46,2.14,4.92,4.3,3.65,5.03,4.4,6.66,7.8.99,2.07,2.42,3.82,3.44,4.93.67.72,1.04,1.68,1.04,2.69v5.43c0,.46.38.84.84.84h19.75c.46,0,.84-.38.84-.84,0-.34,0-.68,0-1.01-.03-2.54-.05-4.72,1.51-7.13,1.16-1.79,1.77-3.91,1.77-6.13v-12.68ZM36.39,52.2c0,1.87-.53,3.73-1.5,5.22-1.8,2.8-1.79,5.29-1.77,7.5,0,.2,0,.39,0,.59v.12H15.04v-4.59c0-1.43-.53-2.79-1.48-3.82-.94-1.02-2.26-2.63-3.16-4.51-1.75-3.65-2.68-4.61-7.09-8.35-1.28-1.09-1.85-2.32-1.56-3.37.21-.75.84-1.28,1.69-1.42,2.03-.34,4.33,1.19,6.84,4.53.11.14.21.27.23.3.24.22.58.27.88.14.3-.13.49-.42.51-.78v-21.27c0-1.34,1.09-2.43,2.43-2.43s2.43,1.09,2.43,2.43v13.2c0,.46.38.84.84.84s.84-.38.84-.84v-3.87c0-1.34,1.09-2.43,2.43-2.43s2.43,1.09,2.43,2.43v6.51c0,.46.38.84.84.84s.84-.38.84-.84v-2.72c0-1.34,1.09-2.43,2.43-2.43s2.43,1.09,2.43,2.43v5.33c0,.46.38.84.84.84s.84-.38.84-.84v-1.42c0-1.34,1.09-2.43,2.43-2.43s2.43,1.09,2.43,2.43v12.68Z"/>
      <path class="cls-1" d="M44.9,12.54h.74c.46,0,.84-.38.84-.84s-.38-.84-.84-.84h-.74c-.46,0-.84.38-.84.84s.38.84.84.84Z"/>
      <path class="cls-1" d="M41.63,10.87h-4.82c-.46,0-.84.38-.84.84s.38.84.84.84h4.82c.46,0,.84-.38.84-.84s-.38-.84-.84-.84Z"/>
      <path class="cls-1" d="M45.64,4h-.74c-.46,0-.84.38-.84.84s.38.84.84.84h.74c.46,0,.84-.38.84-.84s-.38-.84-.84-.84Z"/>
      <path class="cls-1" d="M54.06,12.8V3.63c0-2-1.63-3.63-3.63-3.63h-17.36c-1.54,0-2.91.97-3.42,2.42l-4.32,12.3-.14-.18c-1.91-2.44-4.53-4.13-7.58-4.87-.45-.11-.9.17-1.01.62-.05.22-.02.44.1.63.12.19.3.33.52.38,3.09.75,5.71,2.65,7.4,5.33l.03.04v.05c-.02.1-.07.23-.14.38-.23.57-.57,1.43.22,2.19.32.31.75.47,1.18.44h.1s.03.09.03.09c.69,2.45.57,5.12-.32,7.51-.08.21-.07.44.02.64.09.2.26.36.47.44.21.08.44.07.64-.02.2-.09.36-.26.44-.47,1.03-2.76,1.15-5.84.33-8.66l-.03-.11.1-.04c.8-.32,1.5-.61,2.12-.86,3.22-1.32,4.43-1.81,6.6-1.81h14.03c2,0,3.63-1.63,3.63-3.63ZM28.97,16.77c-.79.32-1.7.68-2.75,1.1l-.25.1,5.26-14.98c.27-.78,1.02-1.31,1.84-1.31h17.36c1.08,0,1.95.88,1.95,1.95v9.18c0,1.08-.88,1.95-1.95,1.95h-14.03c-2.43,0-3.59.47-7.43,2.01Z"/>
      <path class="cls-1" d="M36.81,9.11h.74c.46,0,.84-.38.84-.84s-.38-.84-.84-.84h-.74c-.46,0-.84.38-.84.84s.38.84.84.84Z"/>
      <path class="cls-1" d="M45.64,7.43h-4.82c-.46,0-.84.38-.84.84s.38.84.84.84h4.82c.46,0,.84-.38.84-.84s-.38-.84-.84-.84Z"/>
      <path class="cls-1" d="M41.63,4h-4.82c-.46,0-.84.38-.84.84s.38.84.84.84h4.82c.46,0,.84-.38.84-.84s-.38-.84-.84-.84Z"/>
    </g>
  </g>
</svg>