<?xml version="1.0" encoding="UTF-8"?>
<svg id="Capa_2" data-name="Capa 2" xmlns="http://www.w3.org/2000/svg" viewBox="0 0 368.73 45.32">
  <defs>
    <style>
      .cls-1 {
        fill: #6b84c0;
      }

      .cls-2 {
        fill: #c63735;
      }

      .cls-3 {
        fill: #2f3e80;
      }

      .cls-4 {
        fill: #acb8d3;
      }
    </style>
  </defs>
  <g id="Capa_1-2" data-name="Capa 1">
    <g>
      <g>
        <path class="cls-4" d="M25.38,11.04c-4.11-1.87-9.04-2.24-14.1-.41-4.63,1.68-8.34,5.35-10.04,9.98-4.69,12.74,4.61,24.7,16.71,24.7,2.66,0,5.18-.58,7.45-1.62,1.77-.81,2.32-3.02,1.24-4.64-2.23-3.35-3.52-7.37-3.52-11.69s1.3-8.33,3.52-11.68c1.08-1.62.52-3.84-1.25-4.65Z"/>
        <path class="cls-1" d="M28.72,28.51c.56,9.06,8.02,16.39,17.1,16.79,3.04.13,5.92-.49,8.47-1.7,1.15-.54,1.49-2.01.7-3-2.91-3.63-4.65-8.23-4.65-13.23s1.73-9.57,4.62-13.19c.79-.99.5-2.49-.65-3.03-2.33-1.1-4.93-1.72-7.68-1.72-10.29,0-18.55,8.66-17.91,19.08Z"/>
        <path class="cls-2" d="M75.39,9.49c-11.06-.87-20.21,8.29-19.34,19.34.69,8.7,7.73,15.74,16.43,16.43,11.06.87,20.21-8.29,19.34-19.34-.69-8.7-7.73-15.74-16.43-16.43Z"/>
      </g>
      <g>
        <path class="cls-3" d="M141.47,13.03c-4.15,0-7.69,1.97-9.66,4.93-1.62-3.16-5.11-4.93-9.34-4.93s-7.11,1.86-8.53,3.8l-.15-3.22h-7.08v27.86h7.46v-15.58c0-3.86,2.87-5.95,6.09-5.95s5.54,2.09,5.54,5.95v15.58h7.46v-15.76c0-3.77,2.93-5.77,6.12-5.77s5.57,2.09,5.57,5.95v15.58h7.46v-17.5c0-6.79-4.56-10.94-10.94-10.94Z"/>
        <path class="cls-3" d="M180.77,16.97c-1.83-2.29-4.76-3.95-9.08-3.95-7.66,0-13.43,6.01-13.43,14.45s5.77,14.57,13.43,14.57c4.32,0,7.25-1.62,9.08-3.95l.15,3.37h7.28V13.61h-7.28l-.15,3.37ZM173.14,35.43c-4.47,0-7.49-3.48-7.49-7.95s3.02-7.81,7.49-7.81,7.6,3.37,7.6,7.81-3.16,7.95-7.6,7.95Z"/>
        <path class="cls-3" d="M210.47,35.2c-5.05,0-8.73-2.96-8.73-7.72,0-5.02,3.89-7.63,8.97-7.63,2.76,0,5.31.64,7.31,1.51l.64-6.47c-2.38-1.07-5.34-1.86-8.76-1.86-9,0-15.61,5.43-15.61,14.48s6.53,14.54,15.7,14.54c3.39,0,6.09-.75,9.02-2.06l-.87-6.62c-2.41,1.13-4.85,1.83-7.66,1.83Z"/>
        <path class="cls-3" d="M237.55,13.03c-8.53,0-14.89,6.3-14.89,14.51s6.35,14.51,14.89,14.51,14.89-6.27,14.89-14.51-6.33-14.51-14.89-14.51ZM237.55,35.31c-4.35,0-7.49-3.31-7.49-7.78s3.13-7.75,7.49-7.75,7.49,3.31,7.49,7.75-3.1,7.78-7.49,7.78Z"/>
        <rect class="cls-3" x="298.96" y="13.61" width="7.46" height="27.86"/>
        <path class="cls-3" d="M286.34,13.61v-2.64c0-3.39,2.21-4.56,4.67-4.56,1,0,2.04.2,3.01.51V.63c-1.1-.32-2.5-.63-4.12-.63-6.91,0-10.76,4.35-10.76,10.59v3.02l-.05,11.31h0v16.55h7.46v-21.68h7.48v-6.18h-7.69Z"/>
        <path class="cls-3" d="M302.68.38c-2.52,0-4.27,1.74-4.27,4.27s1.74,4.27,4.27,4.27,4.29-1.74,4.29-4.27-1.77-4.27-4.29-4.27Z"/>
        <path class="cls-3" d="M265.97,13.61v-2.29c0-3.6,2.18-4.9,5.08-4.9,1.18,0,2.33.18,3.38.57V.65c-1.13-.34-2.46-.62-4.16-.62-7.66,0-11.49,4.76-11.49,10.85v2.73l-.06,6.18v21.68h7.46v-21.68h8.25v-6.18h-8.46Z"/>
        <path class="cls-3" d="M328.66,35.2c-5.05,0-8.73-2.96-8.73-7.72,0-5.02,3.89-7.63,8.97-7.63,2.76,0,5.31.64,7.31,1.51l.64-6.47c-2.38-1.07-5.34-1.86-8.76-1.86-9,0-15.61,5.43-15.61,14.48s6.53,14.54,15.7,14.54c3.39,0,6.09-.75,9.02-2.06l-.87-6.62c-2.41,1.13-4.85,1.83-7.66,1.83Z"/>
        <path class="cls-3" d="M355.19,13.03c-8.27,0-14.3,5.98-14.3,14.51s6.33,14.51,16.19,14.51c4.06,0,7.81-1.07,10.5-2.61l-1.04-6.04c-2.76,1.31-5.98,2.12-9.43,2.12-4.58,0-8.07-1.86-8.82-5.75h20.14c1.83-10.3-4.67-16.74-13.23-16.74ZM348.4,24.78c.32-3.16,2.99-5.48,6.96-5.48s6.18,2.38,6.38,5.48h-13.35Z"/>
      </g>
    </g>
  </g>
</svg>