<?xml version="1.0" encoding="UTF-8"?>
<svg id="Capa_2" data-name="Capa 2" xmlns="http://www.w3.org/2000/svg" viewBox="0 0 70.02 70">
  <defs>
    <style>
      .cls-1, .cls-2 {
        fill: none;
      }

      .cls-1, .cls-3 {
        stroke-width: 0px;
      }

      .cls-2 {
        stroke: #14223a;
        stroke-linecap: round;
        stroke-linejoin: round;
        stroke-width: 2px;
      }

      .cls-3 {
        fill: #14223a;
      }
    </style>
  </defs>
  <g id="Capa_1-2" data-name="Capa 1">
    <g>
      <path class="cls-3" d="m50.56,53.68c-.41-.78-2-1.15-2.33-.08-.21.69.18,1.4.85,1.61l.25.08c.92.28,1.69-.72,1.22-1.61h0Z"/>
      <path class="cls-3" d="m19.48,53.68c.41-.78,2-1.15,2.33-.08.21.69-.18,1.4-.85,1.61l-.25.08c-.92.28-1.69-.72-1.22-1.61Z"/>
      <path class="cls-3" d="m47.68,59.47l.35.11c.55.17,1.13-.14,1.3-.69.2-.64-.16-1.31-.8-1.51l-.33-.1c-.55-.17-1.14.14-1.31.69-.2.63.16,1.31.79,1.5h0Z"/>
      <path class="cls-3" d="m22.37,59.47l-.35.11c-.55.17-1.13-.14-1.3-.69-.2-.64.16-1.31.8-1.51l.33-.1c.55-.17,1.14.14,1.31.69.2.63-.16,1.31-.79,1.5h0Z"/>
      <path class="cls-3" d="m42.15,44.5c1.25.99,2.88-1.05,1.61-2.04-1.35-1.07-2.96.99-1.61,2.04Z"/>
      <path class="cls-3" d="m27.9,44.5c-1.25.99-2.88-1.05-1.61-2.04,1.35-1.07,2.96.99,1.61,2.04Z"/>
      <path class="cls-3" d="m47.68,45.55l-.08-.06c-.97-.77-2.17.3-2.06,1.24.07.57.41.73.53.87,1.25.99,2.88-1.04,1.61-2.04Z"/>
      <path class="cls-3" d="m22.36,45.55l.08-.06c.97-.77,2.17.3,2.06,1.24-.07.57-.41.73-.53.87-1.25.99-2.88-1.04-1.61-2.04Z"/>
      <path class="cls-3" d="m38.22,41.4c1.26.99,2.88-1.05,1.61-2.04-1.35-1.07-2.96.98-1.61,2.04Z"/>
      <path class="cls-3" d="m31.82,41.4c-1.26.99-2.88-1.05-1.61-2.04,1.35-1.07,2.96.98,1.61,2.04Z"/>
      <rect class="cls-1" x=".02" width="70" height="70"/>
      <polyline class="cls-2" points="3.04 62.94 19.34 49.79 12.96 29.07"/>
      <polyline class="cls-2" points="66.55 62.94 50.25 49.79 56.63 29.07"/>
      <polyline class="cls-2" points="18.19 24 35.02 36.94 52.02 24"/>
      <line class="cls-2" x1="1" y1="62.94" x2="68.49" y2="62.94"/>
      <g>
        <rect class="cls-2" x="56.3" y="16.99" width="7.13" height="7.13" transform="translate(32.07 -36.32) rotate(45)"/>
        <polygon class="cls-2" points="59.44 31.22 49.24 21.02 54.83 20.55 59.87 25.6 59.44 31.22"/>
      </g>
      <g>
        <rect class="cls-2" x="6.22" y="16.99" width="7.13" height="7.13" transform="translate(31.23 28.17) rotate(135)"/>
        <polygon class="cls-2" points="10.21 31.22 20.41 21.02 14.83 20.55 9.78 25.6 10.21 31.22"/>
      </g>
      <polyline class="cls-2" points="7.19 18.1 4.85 15.64 4.85 8.49"/>
      <polyline class="cls-2" points="62.78 18.1 65.12 15.64 65.12 8.49"/>
      <line class="cls-2" x1="1.15" y1="8.49" x2="69" y2="8.49"/>
    </g>
  </g>
</svg>