<?xml version="1.0" encoding="UTF-8"?>
<svg id="Capa_2" data-name="Capa 2" xmlns="http://www.w3.org/2000/svg" viewBox="0 0 70 70">
  <defs>
    <style>
      .cls-1 {
        stroke: #14223a;
        stroke-linecap: round;
        stroke-linejoin: round;
        stroke-width: 1.73px;
      }

      .cls-1, .cls-2 {
        fill: none;
      }

      .cls-2 {
        stroke-width: 0px;
      }
    </style>
  </defs>
  <g id="Capa_1-2" data-name="Capa 1">
    <g>
      <rect class="cls-1" x="7.23" y="39.44" width="55.54" height="4.94"/>
      <line class="cls-1" x1="4.76" y1="39.44" x2="65.24" y2="39.44"/>
      <line class="cls-1" x1="9.7" y1="39.44" x2="9.7" y2="15.99"/>
      <line class="cls-1" x1="60.3" y1="39.44" x2="60.3" y2="15.99"/>
      <path class="cls-1" d="m49.82,39.44h-8.65c-1.02,0-1.84-.83-1.84-1.84v-1.25c0-1.02.83-1.84,1.84-1.84h8.65c1.02,0,1.84.83,1.84,1.84v1.25c0,1.02-.83,1.84-1.84,1.84Z"/>
      <path class="cls-1" d="m49.82,34.51h-8.65c-1.02,0-1.84-.83-1.84-1.84v-1.25c0-1.02.83-1.84,1.84-1.84h8.65c1.02,0,1.84.83,1.84,1.84v1.25c0,1.02-.83,1.84-1.84,1.84Z"/>
      <path class="cls-1" d="m28.84,39.44h-8.65c-1.02,0-1.84-.83-1.84-1.84v-1.25c0-1.02.83-1.84,1.84-1.84h8.65c1.02,0,1.84.83,1.84,1.84v1.25c0,1.02-.83,1.84-1.84,1.84Z"/>
      <path class="cls-1" d="m28.84,34.51h-8.65c-1.02,0-1.84-.83-1.84-1.84v-1.25c0-1.02.83-1.84,1.84-1.84h8.65c1.02,0,1.84.83,1.84,1.84v1.25c0,1.02-.83,1.84-1.84,1.84Z"/>
      <rect class="cls-1" x="9.7" y="44.38" width="49.37" height="20.98"/>
      <path class="cls-1" d="m52.9,9.82h9.26c1.7,0,3.09,1.38,3.09,3.09v3.09H4.76v-3.09c0-1.7,1.38-3.09,3.09-3.09h9.26"/>
      <path class="cls-1" d="m52.9,15.99H17.1v-7.42c0-2.04,1.65-3.69,3.69-3.69h28.42c2.04,0,3.69,1.65,3.69,3.69v7.42h0Z"/>
      <rect class="cls-1" x="14.63" y="49.32" width="39.5" height="11.11"/>
    </g>
    <rect class="cls-2" width="70" height="70"/>
  </g>
</svg>